<svg width="14" height="15" viewBox="0 0 14 15" fill="none" xmlns="http://www.w3.org/2000/svg">
<path d="M4.86205 12.0948C4.78723 12.0923 4.71372 12.0745 4.64602 12.0426C4.57832 12.0107 4.51786 11.9652 4.46833 11.9091L0.754046 8.19481C0.683228 8.1489 0.623767 8.08749 0.580153 8.01523C0.536539 7.94298 0.509912 7.86175 0.502282 7.7777C0.494651 7.69364 0.506218 7.60895 0.536107 7.53002C0.565996 7.45109 0.613428 7.37998 0.67482 7.32207C0.736212 7.26415 0.809961 7.22094 0.890497 7.19569C0.971034 7.17045 1.05625 7.16383 1.13972 7.17634C1.22319 7.18885 1.30272 7.22016 1.37232 7.2679C1.44192 7.31565 1.49976 7.37858 1.54147 7.45195L4.86205 10.7502L12.6398 2.99481C12.7445 2.92692 12.8689 2.89615 12.9932 2.90743C13.1175 2.91872 13.2344 2.9714 13.3252 3.05703C13.416 3.14267 13.4753 3.2563 13.4938 3.37972C13.5123 3.50313 13.4889 3.62918 13.4272 3.73767L5.25576 11.9091C5.20624 11.9652 5.14577 12.0107 5.07807 12.0426C5.01037 12.0745 4.93686 12.0923 4.86205 12.0948Z" fill="white"/>
</svg>
