<svg xmlns="http://www.w3.org/2000/svg" width="14" height="14" viewBox="0 0 14 14" fill="none">
  <path d="M5.24983 11.1728C5.14912 11.1694 5.05016 11.1455 4.95903 11.1025C4.86789 11.0595 4.7865 10.9984 4.71983 10.9228C4.57938 10.7822 4.50049 10.5916 4.50049 10.3928C4.50049 10.1941 4.57938 10.0034 4.71983 9.86281L7.71983 6.86281L4.71983 3.86281C4.6605 3.7188 4.64749 3.5599 4.68258 3.40815C4.71768 3.2564 4.79915 3.11935 4.91568 3.01601C5.03221 2.91267 5.17802 2.84817 5.33288 2.83147C5.48773 2.81477 5.64394 2.8467 5.77983 2.92282L9.27983 6.42282C9.42028 6.56344 9.49917 6.75406 9.49917 6.95282C9.49917 7.15157 9.42028 7.34219 9.27983 7.48282L5.77983 10.9228C5.71316 10.9984 5.63177 11.0595 5.54063 11.1025C5.44949 11.1455 5.35054 11.1694 5.24983 11.1728Z" fill="#136C34"/>
</svg>