<svg width="22" height="21" viewBox="0 0 22 21" fill="none" xmlns="http://www.w3.org/2000/svg">
<path d="M20.9518 15.4584C20.8468 15.4584 18.4902 15.0384 18.4902 8.16669C18.4902 3.31335 15.6668 0.291687 11.0002 0.291687C6.3335 0.291687 3.51016 3.31335 3.51016 8.16669C3.51016 15.1667 1.07183 15.4584 1.0835 15.4584C0.851432 15.4584 0.628872 15.5505 0.464778 15.7146C0.300683 15.8787 0.208496 16.1013 0.208496 16.3334C0.208496 16.5654 0.300683 16.788 0.464778 16.9521C0.628872 17.1162 0.851432 17.2084 1.0835 17.2084H6.7185C6.91326 18.2008 7.44676 19.0948 8.22776 19.7375C9.00876 20.3801 9.98876 20.7314 11.0002 20.7314C12.0116 20.7314 12.9916 20.3801 13.7726 19.7375C14.5536 19.0948 15.0871 18.2008 15.2818 17.2084H20.9285C21.1606 17.2084 21.3831 17.1162 21.5472 16.9521C21.7113 16.788 21.8035 16.5654 21.8035 16.3334C21.8035 16.1013 21.7113 15.8787 21.5472 15.7146C21.3831 15.5505 21.1606 15.4584 20.9285 15.4584H20.9518ZM11.0002 18.9584C10.4592 18.9573 9.93184 18.7884 9.49092 18.475C9.04999 18.1615 8.71721 17.719 8.5385 17.2084H13.4618C13.2831 17.719 12.9503 18.1615 12.5094 18.475C12.0685 18.7884 11.5411 18.9573 11.0002 18.9584ZM3.72016 15.4584C4.56016 14.1867 5.26016 11.9584 5.26016 8.16669C5.26016 4.37502 7.36016 2.04169 11.0002 2.04169C14.6402 2.04169 16.7402 4.27002 16.7402 8.16669C16.7402 12.0634 17.4402 14.1867 18.2802 15.4584H3.72016Z" fill="#137C38"/>
</svg>
